<svg width="68" height="83" viewBox="0 0 68 83" fill="none" xmlns="http://www.w3.org/2000/svg">
<mask id="mask0_1_117" style="mask-type:alpha" maskUnits="userSpaceOnUse" x="0" y="0" width="68" height="83">
<path d="M35.5791 64.6244C35.5791 63.8563 35.297 63.131 34.6474 62.6475C34.194 62.3101 33.7962 61.9349 33.4839 61.5144C33.3026 61.2726 33.149 61.0233 33.0179 60.7715C32.8693 60.4793 32.751 60.1873 32.6579 59.8977C32.5522 59.5652 32.4766 59.2379 32.4211 58.9181C32.3581 58.5529 32.3254 58.2004 32.3028 57.8554C32.2801 57.465 32.2751 57.0924 32.2751 56.7348C32.2751 56.4048 32.2725 56.0851 32.2725 55.7929V55.5813V54.108V53.5238C32.2725 53.5238 32.2725 45.4149 32.2725 42.5895C32.2725 41.2523 31.8872 40.0158 30.7037 38.8322C28.062 36.1904 24.0051 37.2129 23.7633 37.1349L14.5817 39.3661C16.959 42.6046 20.2831 45.1933 24.3298 46.6741V50.0864C10.6305 53.9393 0.68335 65.7953 0.68335 82.5267H13.6901H22.7083V80.5751C22.7083 79.5502 22.7612 78.6134 22.8721 77.7521C22.9804 76.8884 23.1491 76.0975 23.3859 75.3723C23.5445 74.8888 23.7359 74.433 23.9601 74.0049C24.2597 73.4333 24.6275 72.917 25.0556 72.4637C25.3023 72.2043 27.1005 70.1796 29.7043 70.1796C33.8894 70.1799 35.5791 68.0293 35.5791 64.6244Z" fill="white"/>
<path d="M42.8967 49.7261V44.6744C46.7621 42.2292 50.5346 34.8256 50.5346 25.9134V20.0962C49.9655 8.4468 40.0587 -0.535928 28.4093 0.0333187C17.1953 0.582259 8.4545 9.78643 8.33104 20.8668L3.69245 27.2329C3.31467 27.734 3.13336 28.2831 3.43313 28.8598C3.7429 29.4466 4.39515 29.5549 4.92394 29.6355L8.74412 30.2171L9.10417 33.8434C9.10417 33.8434 23.9115 33.8988 26.3013 33.8988C36.3592 33.8988 35.7977 36.6387 35.7977 42.5894C35.7977 45.4148 35.7977 53.0125 35.7977 53.0125V53.3575C35.7977 53.6849 35.7927 54.0022 35.7927 54.3018C35.7927 54.6694 35.823 55.0145 35.823 55.3217C35.823 55.9714 36.435 56.6639 36.5281 56.7772C36.581 56.8402 36.644 56.9007 36.7196 56.9661C36.8052 57.0367 36.911 57.1071 37.0469 57.1801C37.2005 57.2657 37.3944 57.3489 37.6361 57.4269C37.9132 57.515 38.2581 57.593 38.6712 57.6535C38.9935 57.6963 39.3611 57.7315 39.7766 57.7466C40.5246 57.7063 41.343 57.7542 42.1816 57.9481C47.7319 59.2223 51.6502 67.9355 46.0949 74.697C40.5372 81.4585 32.4385 79.114 29.1395 77.18C28.3412 76.7141 26.9386 75.9687 26.6767 76.9937C26.5684 77.4168 26.4928 77.9053 26.4324 78.4544C26.3669 79.0815 26.329 79.7866 26.3316 80.5747V82.5263H52.4661H67.9408C67.9407 65.231 57.3111 53.1459 42.8967 49.7261Z" fill="#F7DECE"/>
</mask>
<g mask="url(#mask0_1_117)">
<rect x="0.68335" y="49.5663" width="67.2573" height="33.6286" fill="#577CFF"/>
</g>
</svg>
